<?xml version="1.0" standalone="no"?>
<!DOCTYPE svg PUBLIC "-//W3C//DTD SVG 20010904//EN"
 "http://www.w3.org/TR/2001/REC-SVG-20010904/DTD/svg10.dtd">
<svg version="1.0" xmlns="http://www.w3.org/2000/svg"
 width="685.000000pt" height="685.000000pt" viewBox="0 0 685.000000 685.000000"
 preserveAspectRatio="xMidYMid meet">
<metadata>
Created by potrace 1.11, written by Peter Selinger 2001-2013
</metadata>
<g transform="translate(0.000000,685.000000) scale(0.100000,-0.100000)"
fill="#000000" stroke="none">
<path d="M2015 4341 c-56 -25 -101 -66 -133 -120 -24 -40 -27 -56 -27 -131 0
-96 16 -141 72 -196 59 -59 108 -79 198 -79 90 0 139 20 198 79 56 55 72 100
72 196 0 75 -3 91 -27 131 -55 93 -134 139 -243 139 -46 0 -83 -7 -110 -19z"/>
<path d="M2495 4220 c23 -140 27 -190 22 -325 -4 -122 -10 -166 -31 -238 -64
-216 -180 -368 -368 -484 -73 -45 -63 -53 22 -19 169 69 322 196 388 323 68
130 90 316 58 486 -23 119 -109 362 -91 257z"/>
<path d="M2456 3905 c-103 -441 -385 -727 -760 -771 -45 -5 -54 -9 -41 -17 26
-14 238 -2 310 18 182 50 334 173 413 337 24 48 51 121 62 162 22 87 43 255
38 311 -3 37 -4 34 -22 -40z"/>
<path d="M2981 3959 c-101 -20 -191 -92 -233 -187 -29 -64 -34 -155 -14 -225
56 -194 293 -282 509 -190 34 15 38 15 55 0 10 -10 22 -17 25 -17 4 0 7 45 7
100 0 55 -4 100 -8 100 -4 0 -14 -16 -21 -36 -17 -48 -75 -110 -124 -136 -53
-26 -142 -26 -195 1 -96 49 -147 154 -141 291 3 64 10 88 39 145 47 91 97 128
183 133 107 7 182 -42 232 -150 12 -26 25 -45 29 -41 9 10 7 203 -3 203 -5 0
-15 -10 -23 -21 l-14 -22 -39 20 c-76 39 -172 50 -264 32z"/>
<path d="M1376 3941 c-70 -20 -80 -34 -34 -47 33 -10 33 -10 36 -81 l3 -71
-58 5 c-75 7 -134 -10 -180 -50 -66 -58 -90 -154 -61 -250 35 -117 176 -162
264 -85 l34 30 0 -36 c0 -40 -4 -40 93 -11 51 15 56 27 17 42 l-30 11 0 281
c0 219 -3 281 -12 280 -7 0 -40 -8 -72 -18z m-29 -256 l35 -35 -4 -114 c-3
-105 -5 -117 -27 -140 -36 -39 -99 -37 -140 4 -95 96 -50 320 64 320 29 0 45
-8 72 -35z"/>
<path d="M5173 3937 c-35 -12 -63 -24 -63 -29 0 -4 10 -13 23 -19 12 -7 25
-17 29 -23 4 -6 8 -119 8 -251 0 -132 -4 -245 -8 -251 -4 -7 -18 -14 -31 -15
-14 -2 -26 -10 -29 -16 -3 -10 22 -13 103 -13 81 0 106 3 103 13 -3 6 -17 13
-31 15 l-27 3 0 299 c0 164 -3 301 -7 303 -5 2 -36 -5 -70 -16z"/>
<path d="M485 3940 c3 -5 14 -10 24 -10 10 0 25 -8 34 -18 15 -16 17 -49 17
-260 0 -132 -4 -252 -9 -265 -6 -14 -23 -29 -40 -35 -74 -26 -30 -32 234 -32
l264 0 15 53 c33 117 35 127 23 127 -7 0 -25 -21 -41 -46 -16 -25 -47 -57 -69
-72 -34 -23 -52 -27 -137 -30 -131 -6 -130 -7 -130 154 l0 124 50 0 c72 0 103
-19 129 -80 12 -28 26 -48 31 -45 6 4 10 66 10 141 0 112 -2 134 -15 134 -8 0
-15 -7 -15 -15 0 -59 -63 -105 -145 -105 l-45 0 0 135 0 135 78 0 c110 0 145
-13 210 -76 48 -46 72 -63 72 -51 0 1 -13 34 -29 72 l-30 70 -246 3 c-165 1
-244 -1 -240 -8z"/>
<path d="M4282 3918 c-17 -17 -15 -54 4 -72 18 -19 55 -21 72 -4 7 7 12 24 12
38 0 14 -5 31 -12 38 -7 7 -24 12 -38 12 -14 0 -31 -5 -38 -12z"/>
<path d="M4502 3757 c-34 -34 -62 -66 -62 -70 0 -4 14 -7 30 -7 l30 0 0 -139
c0 -77 4 -151 10 -166 13 -34 71 -59 118 -50 21 4 50 21 70 41 37 37 38 56 0
30 -24 -17 -65 -21 -84 -8 -26 17 -34 56 -34 171 l0 121 68 0 c64 0 70 2 80
25 7 14 12 28 12 30 0 3 -36 5 -80 5 l-80 0 0 40 c0 22 -4 40 -8 40 -4 0 -36
-28 -70 -63z"/>
<path d="M3491 3709 c-91 -45 -117 -77 -89 -106 11 -10 25 -13 42 -9 21 5 26
13 26 35 0 51 57 85 106 62 21 -9 24 -17 24 -60 l0 -50 -72 -42 c-97 -57 -128
-88 -128 -131 1 -42 19 -66 59 -78 41 -11 87 2 123 37 20 19 28 22 28 11 0
-25 39 -52 75 -52 43 0 85 37 85 73 -1 24 -2 24 -14 9 -20 -27 -55 -23 -67 9
-5 15 -9 86 -7 161 3 130 2 134 -21 153 -35 29 -80 23 -170 -22z m93 -306
c-22 -16 -76 -17 -92 -1 -19 19 -14 63 8 83 11 10 37 29 58 41 l37 23 3 -67
c2 -54 0 -69 -14 -79z"/>
<path d="M3820 3725 c-30 -12 -56 -27 -57 -32 -2 -6 10 -16 27 -23 l30 -12 0
-242 c0 -256 -2 -266 -47 -266 -13 0 -23 -4 -23 -10 0 -6 43 -10 110 -10 62 0
110 4 110 9 0 6 -15 11 -32 13 l-33 3 -3 86 -3 86 74 5 c91 6 148 35 191 96
26 37 31 54 34 115 3 60 -1 80 -20 117 -29 56 -78 90 -130 90 -46 0 -72 -12
-115 -53 l-33 -31 0 42 c0 49 -3 49 -80 17z m238 -61 c77 -54 71 -232 -10
-288 -25 -18 -80 -21 -108 -6 -27 14 -40 71 -40 173 0 80 2 90 25 112 29 30
97 34 133 9z"/>
<path d="M4293 3732 c-66 -21 -72 -28 -39 -43 l26 -12 0 -163 0 -162 -25 -6
c-55 -14 -22 -26 70 -26 92 0 125 12 70 26 l-25 6 0 199 c0 153 -3 199 -12
198 -7 -1 -36 -8 -65 -17z"/>
<path d="M4878 3731 c-102 -40 -156 -88 -137 -123 22 -41 79 -12 79 41 0 25
36 51 71 51 37 0 59 -29 59 -78 0 -40 -1 -42 -62 -74 -81 -43 -148 -106 -148
-140 0 -14 9 -37 20 -50 36 -46 109 -42 162 9 20 19 28 22 28 11 0 -20 29 -45
61 -53 37 -9 83 17 99 55 14 33 5 56 -11 27 -6 -9 -18 -17 -27 -17 -37 0 -42
20 -42 167 0 139 -1 145 -25 168 -29 30 -62 31 -127 6z m72 -239 c0 -76 -18
-102 -70 -102 -45 0 -66 25 -56 66 6 21 95 92 119 93 4 1 7 -25 7 -57z"/>
<path d="M1520 3731 c0 -5 12 -11 28 -13 l27 -3 5 -160 c6 -174 12 -195 62
-221 44 -23 101 -13 149 26 l39 31 0 -36 c0 -30 3 -35 18 -31 9 3 38 8 65 12
58 8 66 18 30 36 l-28 13 -3 178 -2 177 -75 0 c-43 0 -75 -4 -75 -10 0 -5 10
-10 23 -10 42 0 47 -16 47 -151 0 -70 -3 -135 -6 -144 -8 -20 -56 -45 -89 -45
-14 0 -34 9 -45 20 -18 18 -20 33 -20 180 l0 160 -75 0 c-41 0 -75 -4 -75 -9z"/>
<path d="M5450 3691 c0 -5 9 -13 20 -16 19 -6 20 -15 20 -154 0 -143 -1 -149
-22 -164 -21 -15 -13 -16 120 -16 106 -1 144 2 146 12 12 36 15 97 6 97 -5 0
-10 -6 -10 -14 0 -48 -99 -97 -155 -76 l-25 10 0 139 c0 114 3 143 16 155 8 9
20 16 25 16 6 0 7 5 4 10 -8 13 -145 13 -145 1z"/>
<path d="M5757 3693 c-4 -3 3 -11 16 -17 21 -11 22 -18 25 -149 l3 -137 -27
-25 -27 -25 146 0 145 0 7 51 c9 63 2 71 -20 24 -10 -19 -27 -41 -38 -47 -22
-11 -113 -16 -123 -6 -11 11 -17 171 -10 241 6 53 11 67 27 72 10 4 19 11 19
16 0 10 -133 13 -143 2z"/>
<path d="M6144 3681 c-65 -40 -101 -118 -90 -196 17 -113 112 -170 230 -140
36 9 55 10 63 3 10 -8 13 3 13 51 0 33 -2 61 -5 61 -2 0 -12 -16 -21 -36 -31
-65 -97 -89 -152 -54 -109 68 -71 310 49 310 44 0 85 -30 108 -79 l16 -36 3
59 c3 54 -5 86 -15 59 -3 -8 -13 -8 -38 3 -49 20 -124 18 -161 -5z"/>
<path d="M0 2851 c0 -5 9 -11 20 -14 18 -5 20 -14 20 -115 0 -102 -1 -111 -22
-125 -22 -15 -19 -16 52 -16 61 0 71 2 53 11 -20 9 -23 19 -23 65 0 52 0 53
30 53 24 0 35 -7 48 -30 9 -16 20 -30 25 -30 4 0 7 29 7 65 0 37 -4 65 -10 65
-5 0 -10 -7 -10 -15 0 -18 -31 -35 -64 -35 -25 0 -26 3 -26 55 l0 55 50 0 c41
0 55 -5 85 -31 20 -18 38 -29 41 -27 3 3 -3 22 -12 42 l-18 36 -123 0 c-68 0
-123 -4 -123 -9z"/>
<path d="M870 2852 c-34 -5 -48 -20 -27 -28 11 -4 17 -17 17 -35 0 -21 -4 -27
-15 -23 -8 4 -30 3 -49 0 -117 -22 -114 -186 3 -186 22 0 43 5 47 11 5 8 9 8
14 -1 5 -8 20 -9 45 -4 33 6 36 8 22 19 -14 10 -17 31 -17 128 0 64 -3 117 -7
119 -5 2 -19 2 -33 0z m-29 -112 c15 -9 19 -22 19 -63 0 -76 -32 -99 -78 -57
-26 25 -29 75 -6 108 17 24 35 28 65 12z"/>
<path d="M1700 2851 c0 -5 9 -11 20 -14 18 -5 20 -14 20 -115 0 -102 -1 -111
-22 -125 -22 -15 -19 -16 52 -16 61 0 71 2 53 11 -22 11 -23 17 -23 125 0 106
1 115 20 120 11 3 17 9 14 14 -7 12 -134 12 -134 0z"/>
<path d="M4630 2845 c-28 -10 -32 -14 -17 -20 15 -6 17 -22 17 -116 0 -92 -3
-109 -17 -118 -14 -8 -3 -10 42 -10 33 1 52 3 43 6 -16 4 -18 19 -18 133 0 71
-3 131 -7 133 -5 2 -24 -1 -43 -8z"/>
<path d="M5000 2851 c0 -5 9 -11 20 -14 18 -5 20 -14 20 -115 0 -102 -1 -111
-22 -125 -21 -15 -13 -16 114 -16 l136 -1 12 33 c10 30 12 31 22 12 6 -11 19
-25 27 -32 21 -16 84 -16 99 -1 10 10 15 10 21 -1 6 -9 18 -11 40 -6 32 7 43
25 16 25 -13 0 -15 21 -15 125 l0 125 -27 -6 c-16 -4 -35 -10 -43 -15 -13 -7
-12 -9 3 -14 10 -4 17 -18 17 -34 0 -24 -4 -26 -40 -26 -48 -1 -91 -30 -105
-71 -23 -68 -105 -115 -170 -98 -23 6 -25 11 -25 60 0 53 0 54 30 54 20 0 35
-8 46 -25 25 -39 34 -30 34 35 0 33 -4 60 -10 60 -5 0 -10 -4 -10 -9 0 -19
-32 -41 -61 -41 -29 0 -29 1 -29 55 l0 55 41 0 c44 0 71 -11 108 -44 l24 -21
-7 30 c-13 53 -19 55 -147 55 -66 0 -119 -4 -119 -9z m421 -111 c15 -9 19 -22
19 -64 0 -59 -16 -82 -50 -71 -33 11 -53 50 -46 90 9 47 39 65 77 45z"/>
<path d="M2803 2843 c-7 -3 -13 -13 -13 -24 0 -14 7 -19 25 -19 18 0 25 5 25
19 0 20 -17 31 -37 24z"/>
<path d="M6343 2843 c-7 -3 -13 -13 -13 -24 0 -14 7 -19 25 -19 18 0 25 5 25
19 0 20 -17 31 -37 24z"/>
<path d="M6512 2806 c-15 -24 -39 -51 -55 -59 -37 -22 -51 -60 -36 -104 32
-99 203 -73 203 30 0 45 -34 84 -81 93 l-34 7 31 32 c26 27 29 33 15 39 -11 4
-24 -7 -43 -38z m43 -76 c35 -39 13 -140 -30 -140 -7 0 -23 8 -35 18 -44 36
-21 142 30 142 9 0 25 -9 35 -20z"/>
<path d="M330 2759 c-64 -25 -80 -101 -31 -150 24 -24 38 -29 76 -29 38 0 52
5 76 29 78 79 -14 192 -121 150z m80 -24 c6 -8 14 -31 17 -52 4 -29 0 -44 -17
-65 -26 -33 -43 -35 -70 -8 -24 24 -27 86 -4 118 17 25 56 29 74 7z"/>
<path d="M515 2756 c-19 -8 -25 -15 -17 -20 17 -10 16 -143 0 -149 -7 -3 10
-6 37 -6 30 0 45 3 37 8 -9 5 -12 27 -10 72 3 64 3 64 33 64 30 0 30 0 33 -64
2 -45 -1 -67 -10 -72 -8 -5 10 -8 42 -8 30 1 47 3 38 6 -14 3 -18 19 -20 81
-3 70 -5 77 -29 91 -22 12 -29 12 -57 -2 -27 -13 -32 -13 -32 -1 0 17 -6 17
-45 0z"/>
<path d="M1004 2760 c-32 -13 -64 -59 -64 -92 0 -19 10 -40 29 -59 24 -24 38
-29 76 -29 38 0 52 5 76 29 49 50 37 121 -26 147 -38 16 -60 17 -91 4z m80
-32 c33 -47 7 -138 -39 -138 -20 0 -55 49 -55 77 0 69 61 108 94 61z"/>
<path d="M1203 2760 c-60 -24 -47 -85 23 -105 28 -7 40 -17 42 -32 6 -44 -69
-38 -83 7 -9 30 -25 24 -25 -9 0 -34 14 -41 76 -41 100 0 115 94 17 115 -35 7
-58 29 -48 45 12 19 53 10 73 -15 26 -32 29 -31 24 4 -5 38 -48 52 -99 31z"/>
<path d="M1459 2755 c-33 -18 -53 -65 -44 -104 15 -69 111 -96 162 -45 30 30
24 43 -9 20 -12 -9 -30 -16 -39 -16 -27 0 -69 39 -69 66 0 23 3 24 65 24 70 0
82 11 46 44 -26 24 -81 29 -112 11z m71 -9 c0 -2 3 -11 6 -20 5 -13 -2 -16
-36 -16 -42 0 -43 0 -25 20 15 17 55 28 55 16z"/>
<path d="M1885 2756 c-19 -8 -25 -15 -17 -20 17 -10 16 -143 0 -149 -7 -3 10
-6 37 -6 30 0 45 3 37 8 -9 5 -12 27 -10 72 3 64 3 64 33 64 30 0 30 0 33 -64
2 -45 -1 -67 -10 -72 -8 -5 10 -8 42 -8 30 1 47 3 38 6 -15 4 -18 16 -18 74 0
56 -4 73 -20 89 -24 24 -36 25 -72 6 -24 -13 -28 -13 -28 0 0 17 -6 17 -45 0z"/>
<path d="M2324 2761 c-33 -14 -54 -51 -54 -92 0 -74 94 -115 154 -68 14 11 26
28 25 37 0 12 -2 13 -6 4 -17 -42 -101 -32 -122 14 -18 41 -14 44 59 44 39 0
70 4 70 9 0 39 -80 71 -126 52z m65 -24 c15 -19 4 -27 -36 -27 -35 0 -41 8
-21 28 16 16 43 15 57 -1z"/>
<path d="M2488 2758 c-27 -9 -39 -28 -18 -28 14 0 13 -123 -2 -138 -9 -9 0
-12 43 -11 29 1 46 3 36 6 -15 4 -17 14 -15 71 l3 67 35 0 c24 0 36 5 38 16 5
27 -29 32 -59 10 -26 -20 -28 -20 -31 -2 -2 15 -8 16 -30 9z"/>
<path d="M2642 2758 c-53 -26 -32 -90 33 -102 39 -8 54 -35 29 -53 -26 -19
-33 -17 -66 19 l-30 32 4 -35 c3 -33 4 -34 51 -37 66 -4 99 17 95 61 -3 29 -8
34 -53 49 -36 11 -50 21 -50 35 0 30 40 28 69 -4 l26 -28 0 31 c0 24 -5 33
-22 38 -32 8 -59 6 -86 -6z"/>
<path d="M2795 2756 c-25 -12 -27 -15 -12 -21 14 -6 17 -20 17 -71 0 -49 -4
-65 -17 -73 -14 -8 -5 -10 37 -10 42 0 51 2 38 10 -15 8 -18 25 -18 94 0 47
-3 85 -7 85 -5 -1 -21 -7 -38 -14z"/>
<path d="M2933 2756 c-17 -8 -36 -23 -42 -35 -15 -26 -13 -82 2 -102 29 -38
92 -50 141 -28 31 15 59 70 50 103 -14 58 -90 89 -151 62z m83 -27 c35 -39 12
-139 -31 -139 -31 0 -58 36 -58 78 0 71 49 105 89 61z"/>
<path d="M3125 2756 c-19 -8 -25 -15 -17 -20 16 -10 16 -128 0 -144 -9 -9 -1
-12 37 -12 30 0 45 4 37 9 -9 5 -12 27 -10 72 3 64 3 64 33 64 30 0 30 0 33
-64 2 -45 -1 -67 -10 -72 -8 -5 7 -8 37 -8 28 0 44 3 38 6 -9 3 -13 26 -13 63
0 32 -4 70 -10 84 -12 32 -52 43 -83 23 -19 -13 -25 -13 -33 -2 -7 11 -14 12
-39 1z"/>
<path d="M3375 2761 c-62 -26 -78 -111 -29 -156 34 -32 91 -33 128 -4 20 16
26 17 26 6 0 -19 22 -27 76 -27 99 0 115 92 19 114 -39 10 -55 24 -48 42 9 23
50 16 72 -13 25 -30 35 -26 25 11 -8 32 -58 45 -101 24 -23 -11 -28 -20 -28
-48 0 -32 4 -36 45 -51 31 -11 46 -23 48 -37 7 -43 -69 -36 -83 8 -8 25 -19
25 -54 -1 -45 -33 -111 -2 -111 53 0 16 10 18 71 18 61 0 70 2 65 16 -3 9 -6
17 -6 20 0 2 -13 10 -30 19 -32 16 -55 18 -85 6z m63 -33 c3 -15 -4 -18 -32
-18 -38 0 -44 8 -24 28 17 17 52 11 56 -10z"/>
<path d="M3783 2757 c-36 -11 -42 -21 -18 -31 12 -4 15 -26 15 -111 0 -87 -3
-105 -15 -105 -8 0 -15 -4 -15 -10 0 -5 25 -10 55 -10 30 0 55 5 55 10 0 6 -9
10 -20 10 -16 0 -20 7 -20 35 0 32 2 35 30 35 42 0 96 24 109 48 44 83 -38
176 -109 123 -27 -19 -29 -19 -32 -3 -3 15 -8 17 -35 9z m125 -39 c17 -17 15
-78 -5 -100 -24 -27 -61 -23 -73 8 -14 35 -13 77 2 92 7 7 24 12 38 12 14 0
31 -5 38 -12z"/>
<path d="M4040 2752 c-32 -13 -46 -24 -48 -40 -5 -31 26 -29 38 4 12 31 53 31
58 -1 2 -15 -9 -26 -42 -44 -49 -25 -65 -53 -46 -76 15 -18 43 -19 72 -4 14 8
23 8 31 0 15 -15 50 -14 65 1 17 17 15 31 -3 25 -21 -9 -29 11 -26 68 2 38 -2
57 -14 69 -20 20 -28 19 -85 -2z m48 -109 c-3 -32 -35 -44 -45 -17 -4 11 1 22
12 30 28 21 37 17 33 -13z"/>
<path d="M4208 2758 c-27 -9 -39 -28 -18 -28 14 0 13 -123 -2 -138 -9 -9 0
-12 43 -11 42 0 49 2 32 9 -19 8 -23 17 -23 55 0 65 14 88 50 80 33 -7 49 10
28 31 -12 12 -20 13 -41 3 -15 -7 -27 -17 -28 -23 -1 -6 -4 -2 -7 10 -6 18
-11 20 -34 12z"/>
<path d="M4377 2748 c-31 -13 -47 -26 -45 -36 4 -23 27 -26 35 -5 14 39 63 47
63 11 -1 -16 -14 -31 -46 -50 -50 -31 -62 -51 -44 -73 15 -18 61 -20 78 -3 9
9 15 9 24 0 23 -23 78 -8 78 20 0 5 -8 8 -17 6 -15 -3 -18 7 -21 62 -2 46 -7
69 -19 78 -22 16 -29 15 -86 -10z m51 -105 c-2 -17 -10 -29 -21 -31 -25 -5
-33 26 -11 43 28 21 36 18 32 -12z"/>
<path d="M4760 2748 c-46 -23 -59 -50 -28 -56 12 -2 21 6 28 23 12 32 53 32
58 0 2 -15 -11 -27 -48 -48 -44 -24 -51 -31 -48 -55 2 -21 9 -28 30 -30 15 -2
36 2 47 7 13 7 22 8 26 1 11 -18 64 -11 75 10 9 17 8 20 -12 17 -22 -2 -23 2
-26 63 -2 46 -7 69 -19 78 -23 17 -32 15 -83 -10z m60 -102 c0 -26 -20 -39
-45 -30 -21 8 -19 20 7 38 31 22 38 20 38 -8z"/>
<path d="M5798 2754 c-34 -18 -48 -43 -48 -85 0 -80 109 -121 167 -63 31 31
26 39 -13 19 -38 -19 -57 -19 -82 3 -32 26 -37 63 -12 95 27 34 58 35 66 3 7
-29 28 -40 43 -22 17 20 3 43 -31 55 -40 14 -57 13 -90 -5z"/>
<path d="M5987 2748 c-31 -13 -47 -26 -45 -36 5 -24 29 -26 35 -3 5 21 36 37
53 26 23 -14 8 -41 -35 -64 -48 -25 -64 -53 -45 -76 15 -18 61 -20 78 -3 9 9
15 9 24 0 23 -23 78 -8 78 20 0 5 -8 8 -17 6 -15 -3 -18 7 -21 62 -2 46 -7 69
-19 78 -22 16 -29 15 -86 -10z m51 -105 c-3 -32 -35 -44 -45 -17 -4 11 1 22
12 30 28 21 37 17 33 -13z"/>
<path d="M6184 2761 c-39 -17 -66 -62 -60 -101 12 -75 104 -107 163 -56 32 28
25 46 -9 22 -30 -21 -50 -20 -82 5 -30 24 -34 63 -10 97 19 27 64 30 64 4 0
-24 19 -42 36 -35 18 7 18 37 0 52 -19 16 -76 23 -102 12z"/>
<path d="M6335 2756 c-19 -8 -25 -15 -17 -20 17 -10 16 -143 0 -149 -7 -3 12
-6 42 -6 42 0 51 2 38 10 -15 8 -18 25 -18 94 0 47 -3 85 -7 85 -5 -1 -21 -7
-38 -14z"/>
<path d="M6680 2763 c-42 -12 -44 -13 -32 -25 16 -16 15 -131 0 -146 -9 -9 -1
-12 38 -12 29 0 44 4 36 9 -9 5 -12 27 -10 72 3 64 3 64 33 64 30 0 30 0 33
-64 2 -45 -1 -67 -10 -72 -8 -5 7 -8 37 -8 28 0 44 3 38 6 -9 3 -13 26 -13 63
0 32 -4 70 -10 84 -12 33 -52 43 -85 22 -30 -19 -33 -20 -37 -3 -2 8 -10 12
-18 10z"/>
<path d="M2071 2750 c8 -5 31 -45 50 -89 19 -45 39 -81 45 -81 6 0 27 36 47
80 24 55 43 83 59 89 19 8 14 10 -27 10 -27 -1 -44 -3 -37 -6 16 -6 14 -30 -8
-78 l-18 -40 -21 48 c-25 59 -26 64 -3 70 9 3 -10 5 -43 6 -41 0 -55 -3 -44
-9z"/>
<path d="M5533 2749 c13 -8 17 -24 17 -77 0 -40 5 -73 12 -80 16 -16 70 -15
87 1 11 10 14 10 18 0 5 -15 42 -17 63 -3 12 8 12 10 -3 16 -14 5 -17 19 -17
80 l0 74 -42 -1 c-36 0 -39 -2 -20 -9 19 -8 22 -17 22 -63 0 -57 -12 -77 -46
-77 -28 0 -34 17 -34 91 l0 59 -37 0 c-31 -1 -35 -3 -20 -11z"/>
</g>
</svg>
